<svg version="1.1" xmlns="http://www.w3.org/2000/svg" viewBox="-11.042402156440952 -11.042008203645588 22.084804312881907 22.084016407291177" fill="none" stroke="black" stroke-width="0.6%" vector-effect="non-scaling-stroke">
    <path d="M -10.0424 9.94933 L -10.0424 -0.00444 L -0.08906 0.08824 L 10.0424 -9.94933 L 0.08906 -10.04201 L -10.0424 -0.00444" />
    <path d="M -0.08906 10.04201 L -0.08906 0.08824" />
    <path d="M -10.0424 9.94933 L -0.08906 10.04201 L 4.97667 5.02322 L 10.0424 0.00444 L 10.0424 -9.94933" />
    <path d="M -3.43801 -5.12071 C -3.38 -5.13 -3.31 -5.14 -3.24648 -5.14545 C -3.18 -5.15 -3.11 -5.16 -3.03852 -5.16907 C -2.99 -5.17 -2.95 -5.18 -2.89977 -5.1833 C -2.85 -5.19 -2.8 -5.19 -2.7552 -5.19702 C -2.71 -5.2 -2.66 -5.21 -2.60505 -5.21022 C -2.55 -5.21 -2.5 -5.22 -2.44959 -5.22287 C -2.4 -5.23 -2.34 -5.23 -2.2891 -5.23494 C -2.23 -5.24 -2.18 -5.24 -2.12384 -5.24643 C -2.07 -5.25 -2.01 -5.25 -1.9541 -5.25731 C -1.9 -5.26 -1.84 -5.26 -1.78015 -5.26757 C -1.74 -5.27 -1.7 -5.27 -1.6553 -5.27441 C -1.61 -5.28 -1.57 -5.28 -1.52861 -5.28092 C -1.49 -5.28 -1.44 -5.29 -1.40018 -5.28711 C -1.36 -5.29 -1.31 -5.29 -1.27011 -5.29296 C -1.23 -5.29 -1.18 -5.3 -1.13851 -5.29848 C -1.09 -5.3 -1.05 -5.3 -1.00548 -5.30365 C -0.96 -5.31 -0.92 -5.31 -0.87112 -5.30847 C -0.83 -5.31 -0.78 -5.31 -0.73556 -5.31294 C -0.69 -5.31 -0.65 -5.32 -0.60096 -5.317 C -0.56 -5.32 -0.51 -5.32 -0.46541 -5.3207 C -0.42 -5.32 -0.37 -5.32 -0.329 -5.32405 C -0.28 -5.33 -0.24 -5.33 -0.19185 -5.32704 C -0.15 -5.33 -0.1 -5.33 -0.05408 -5.32968 C -0.01 -5.33 0.04 -5.33 0.08421 -5.33194 C 0.13 -5.33 0.18 -5.33 0.22289 -5.33384 C 0.27 -5.33 0.32 -5.33 0.36184 -5.33537 L 0.48245 4.49891" />
    <path d="M -3.54669 -5.00991 C -3.55 -5.01 -3.55 -5.02 -3.54645 -5.02276 C -3.55 -5.03 -3.54 -5.03 -3.54322 -5.03514 C -3.54 -5.04 -3.54 -5.04 -3.53703 -5.0475 C -3.53 -5.05 -3.53 -5.06 -3.5279 -5.05982 C -3.52 -5.06 -3.52 -5.07 -3.51581 -5.07211 C -3.51 -5.08 -3.51 -5.08 -3.50077 -5.08435 C -3.5 -5.09 -3.49 -5.09 -3.48279 -5.09653 C -3.48 -5.1 -3.47 -5.1 -3.46187 -5.10866 C -3.45 -5.11 -3.45 -5.12 -3.43801 -5.12071 L -4.58401 4.78511" />
    <path d="M -2.48664 -4.70729 C -2.51 -4.71 -2.54 -4.71 -2.56943 -4.71797 C -2.6 -4.72 -2.62 -4.73 -2.6492 -4.72889 C -2.68 -4.73 -2.7 -4.74 -2.72589 -4.74003 C -2.75 -4.74 -2.78 -4.75 -2.79944 -4.75138 C -2.82 -4.76 -2.85 -4.76 -2.86979 -4.76294 C -2.89 -4.77 -2.92 -4.77 -2.93691 -4.77469 C -2.96 -4.78 -2.98 -4.78 -3.00073 -4.78662 C -3.02 -4.79 -3.04 -4.79 -3.06121 -4.79873 C -3.08 -4.8 -3.1 -4.81 -3.119 -4.81114 C -3.14 -4.82 -3.16 -4.82 -3.17327 -4.82371 C -3.19 -4.83 -3.21 -4.83 -3.224 -4.83643 C -3.24 -4.84 -3.26 -4.84 -3.27114 -4.84928 C -3.29 -4.85 -3.3 -4.86 -3.31467 -4.86225 C -3.33 -4.87 -3.34 -4.87 -3.35454 -4.87533 C -3.37 -4.88 -3.38 -4.88 -3.39072 -4.88852 C -3.4 -4.89 -3.41 -4.9 -3.4232 -4.90179 C -3.43 -4.91 -3.44 -4.91 -3.45193 -4.91514 C -3.46 -4.92 -3.47 -4.92 -3.47691 -4.92856 C -3.48 -4.93 -3.49 -4.94 -3.4981 -4.94204 C -3.5 -4.95 -3.51 -4.95 -3.51549 -4.95557 C -3.52 -4.96 -3.53 -4.96 -3.52905 -4.96913 C -3.53 -4.97 -3.54 -4.98 -3.53878 -4.98271 C -3.54 -4.99 -3.54 -4.99 -3.54467 -4.99631 C -3.55 -5 -3.55 -5.01 -3.54669 -5.00991" />
    <path d="M 1.90118 -4.66644 C 1.81 -4.66 1.72 -4.66 1.63327 -4.65828 C 1.54 -4.66 1.45 -4.65 1.36031 -4.65153 C 1.27 -4.65 1.18 -4.65 1.08326 -4.6462 C 0.99 -4.64 0.9 -4.64 0.80306 -4.6423 C 0.71 -4.64 0.61 -4.64 0.51862 -4.63984 C 0.42 -4.64 0.33 -4.64 0.23287 -4.63883 C 0.14 -4.64 0.04 -4.64 -0.05324 -4.6393 C -0.15 -4.64 -0.24 -4.64 -0.3388 -4.64122 C -0.47 -4.64 -0.61 -4.64 -0.74325 -4.64648 C -0.88 -4.65 -1.01 -4.65 -1.14205 -4.65466 C -1.21 -4.66 -1.27 -4.66 -1.33852 -4.65984 C -1.4 -4.66 -1.47 -4.66 -1.53259 -4.66573 C -1.6 -4.67 -1.66 -4.67 -1.72392 -4.67232 C -1.79 -4.67 -1.85 -4.68 -1.91218 -4.67961 C -2.01 -4.68 -2.11 -4.69 -2.2044 -4.69261 C -2.3 -4.7 -2.39 -4.7 -2.48664 -4.70729" />
    <path d="M 3.54669 -4.94386 C 3.54 -4.94 3.53 -4.93 3.51751 -4.93056 C 3.51 -4.93 3.5 -4.92 3.48454 -4.91732 C 3.47 -4.91 3.46 -4.91 3.44783 -4.90417 C 3.43 -4.9 3.42 -4.9 3.40739 -4.89111 C 3.39 -4.89 3.38 -4.88 3.36328 -4.87816 C 3.35 -4.87 3.33 -4.87 3.31553 -4.86532 C 3.3 -4.86 3.28 -4.86 3.26418 -4.85261 C 3.25 -4.85 3.23 -4.84 3.20927 -4.84004 C 3.19 -4.84 3.17 -4.83 3.15085 -4.82761 C 3.13 -4.82 3.11 -4.82 3.08897 -4.81534 C 3.07 -4.81 3.05 -4.81 3.02368 -4.80323 C 3 -4.8 2.98 -4.8 2.95503 -4.79131 C 2.93 -4.79 2.91 -4.78 2.88307 -4.77957 C 2.86 -4.78 2.83 -4.77 2.80785 -4.76802 C 2.78 -4.76 2.76 -4.76 2.72945 -4.75669 C 2.7 -4.75 2.68 -4.75 2.64791 -4.74557 C 2.62 -4.74 2.59 -4.74 2.56434 -4.73481 C 2.54 -4.73 2.51 -4.73 2.47785 -4.72428 C 2.45 -4.72 2.42 -4.72 2.38849 -4.71398 C 2.36 -4.71 2.33 -4.71 2.29633 -4.70394 C 2.27 -4.7 2.23 -4.7 2.20144 -4.69415 C 2.17 -4.69 2.14 -4.69 2.1039 -4.68464 C 2.07 -4.68 2.04 -4.68 2.00379 -4.67539 C 1.97 -4.67 1.94 -4.67 1.90118 -4.66644" />
    <path d="M 3.66163 -5.05461 C 3.66 -5.05 3.66 -5.05 3.66063 -5.04075 C 3.66 -5.04 3.66 -5.03 3.65577 -5.02687 C 3.65 -5.02 3.65 -5.02 3.64708 -5.01298 C 3.64 -5.01 3.64 -5 3.63456 -4.9991 C 3.63 -4.99 3.62 -4.99 3.61824 -4.98524 C 3.61 -4.98 3.61 -4.98 3.59814 -4.9714 C 3.59 -4.97 3.58 -4.96 3.57428 -4.95761 C 3.57 -4.95 3.56 -4.95 3.54669 -4.94386" />
    <path d="M 0.36184 -5.33537 C 0.41 -5.33 0.46 -5.33 0.5146 -5.33068 C 0.57 -5.33 0.62 -5.33 0.66601 -5.32552 C 0.72 -5.32 0.77 -5.32 0.8159 -5.3199 C 0.87 -5.32 0.92 -5.32 0.96411 -5.31382 C 1.03 -5.31 1.09 -5.31 1.1479 -5.30555 C 1.21 -5.3 1.27 -5.3 1.32848 -5.29658 C 1.39 -5.29 1.45 -5.29 1.50554 -5.28694 C 1.56 -5.28 1.62 -5.28 1.6788 -5.27665 C 1.74 -5.27 1.79 -5.27 1.84798 -5.26572 C 1.9 -5.26 1.96 -5.26 2.01281 -5.25418 C 2.07 -5.25 2.12 -5.25 2.17301 -5.24204 C 2.23 -5.24 2.28 -5.23 2.32834 -5.22932 C 2.36 -5.23 2.4 -5.22 2.43464 -5.22003 C 2.47 -5.22 2.5 -5.21 2.53831 -5.21047 C 2.57 -5.21 2.61 -5.2 2.63927 -5.20065 C 2.67 -5.2 2.71 -5.19 2.73742 -5.19058 C 2.77 -5.19 2.8 -5.18 2.8327 -5.18026 C 2.86 -5.18 2.89 -5.17 2.92502 -5.16971 C 2.96 -5.17 2.99 -5.16 3.0143 -5.15892 C 3.04 -5.16 3.07 -5.15 3.10046 -5.14792 C 3.16 -5.14 3.21 -5.13 3.26076 -5.12564 C 3.31 -5.12 3.36 -5.11 3.40809 -5.10261 C 3.45 -5.09 3.5 -5.09 3.54189 -5.07891 C 3.56 -5.07 3.58 -5.07 3.60355 -5.06683 C 3.62 -5.06 3.64 -5.06 3.66163 -5.05461" />
</svg>