<svg version="1.1" xmlns="http://www.w3.org/2000/svg" viewBox="-11.03714663149988 -11.03676637105502 22.074293262999756 22.07353274211004" fill="none" stroke="black" stroke-width="0.6%" vector-effect="non-scaling-stroke">
    <path d="M -10.03715 9.93476 L -10.03715 -0.01437 L -0.08854 0.08764 L 10.03715 -9.93476 L 0.08854 -10.03677 L -10.03715 -0.01437" />
    <path d="M -0.08854 10.03677 L -0.08854 0.08764" />
    <path d="M -10.03715 9.93476 L -0.08854 10.03677 L 4.9743 5.02557 L 10.03715 0.01437 L 10.03715 -9.93476" />
    <path d="M -3.43079 -5.12708 C -3.37 -5.14 -3.31 -5.14 -3.23804 -5.15294 C -3.17 -5.16 -3.1 -5.17 -3.0289 -5.17761 C -2.98 -5.18 -2.94 -5.19 -2.88945 -5.19247 C -2.84 -5.2 -2.79 -5.2 -2.74419 -5.2068 C -2.69 -5.21 -2.64 -5.22 -2.59338 -5.22056 C -2.54 -5.23 -2.49 -5.23 -2.43729 -5.23375 C -2.38 -5.24 -2.33 -5.24 -2.2762 -5.24634 C -2.22 -5.25 -2.17 -5.25 -2.11037 -5.25831 C -2.05 -5.26 -2 -5.27 -1.94009 -5.26964 C -1.88 -5.27 -1.82 -5.28 -1.76563 -5.28032 C -1.68 -5.29 -1.6 -5.29 -1.51343 -5.29421 C -1.47 -5.3 -1.43 -5.3 -1.38469 -5.30063 C -1.34 -5.3 -1.3 -5.3 -1.25433 -5.30671 C -1.21 -5.31 -1.17 -5.31 -1.12245 -5.31243 C -1.08 -5.31 -1.03 -5.32 -0.98917 -5.31779 C -0.94 -5.32 -0.9 -5.32 -0.85458 -5.32279 C -0.81 -5.32 -0.76 -5.33 -0.71879 -5.32741 C -0.67 -5.33 -0.63 -5.33 -0.58399 -5.3316 C -0.54 -5.33 -0.49 -5.33 -0.44825 -5.33542 C -0.4 -5.34 -0.36 -5.34 -0.31168 -5.33886 C -0.27 -5.34 -0.22 -5.34 -0.17439 -5.34194 C -0.13 -5.34 -0.08 -5.34 -0.03648 -5.34463 C 0.01 -5.35 0.06 -5.35 0.10191 -5.34694 C 0.15 -5.35 0.19 -5.35 0.24069 -5.34887 C 0.29 -5.35 0.33 -5.35 0.37971 -5.3504 L 0.50628 4.47344" />
    <path d="M -3.545 -5.01091 C -3.55 -5.01 -3.55 -5.02 -3.5445 -5.02207 C -3.54 -5.03 -3.54 -5.03 -3.54107 -5.03535 C -3.54 -5.04 -3.54 -5.04 -3.53455 -5.0486 C -3.53 -5.05 -3.53 -5.06 -3.52496 -5.06181 C -3.52 -5.07 -3.52 -5.07 -3.51228 -5.07499 C -3.51 -5.08 -3.5 -5.08 -3.49651 -5.08811 C -3.49 -5.09 -3.48 -5.1 -3.47768 -5.10117 C -3.47 -5.11 -3.46 -5.11 -3.45577 -5.11417 C -3.45 -5.12 -3.44 -5.12 -3.43079 -5.12708 L -4.57439 4.7712" />
    <path d="M -2.50006 -4.69299 C -2.53 -4.7 -2.56 -4.7 -2.58231 -4.70423 C -2.61 -4.71 -2.64 -4.71 -2.66154 -4.71572 C -2.69 -4.72 -2.71 -4.72 -2.73767 -4.72744 C -2.76 -4.73 -2.79 -4.74 -2.81065 -4.73939 C -2.83 -4.74 -2.86 -4.75 -2.88043 -4.75154 C -2.9 -4.76 -2.93 -4.76 -2.94696 -4.7639 C -2.97 -4.77 -2.99 -4.77 -3.01018 -4.77644 C -3.03 -4.78 -3.05 -4.78 -3.07006 -4.78917 C -3.09 -4.79 -3.11 -4.8 -3.12723 -4.80222 C -3.15 -4.81 -3.16 -4.81 -3.18087 -4.81543 C -3.2 -4.82 -3.21 -4.82 -3.23097 -4.82879 C -3.25 -4.83 -3.26 -4.84 -3.27747 -4.84229 C -3.29 -4.85 -3.31 -4.85 -3.32035 -4.85592 C -3.33 -4.86 -3.35 -4.87 -3.35956 -4.86966 C -3.37 -4.87 -3.38 -4.88 -3.39509 -4.88351 C -3.41 -4.89 -3.42 -4.89 -3.4269 -4.89745 C -3.44 -4.9 -3.45 -4.91 -3.45497 -4.91147 C -3.46 -4.92 -3.47 -4.92 -3.47928 -4.92556 C -3.49 -4.93 -3.49 -4.93 -3.4998 -4.9397 C -3.51 -4.94 -3.51 -4.95 -3.51651 -4.9539 C -3.52 -4.96 -3.53 -4.96 -3.5294 -4.96813 C -3.53 -4.97 -3.54 -4.98 -3.53845 -4.98238 C -3.54 -4.99 -3.54 -4.99 -3.54366 -4.99665 C -3.54 -5 -3.55 -5.01 -3.545 -5.01091" />
    <path d="M 1.88567 -4.64802 C 1.8 -4.64 1.71 -4.64 1.61736 -4.63959 C 1.53 -4.64 1.44 -4.63 1.34407 -4.63264 C 1.25 -4.63 1.16 -4.63 1.06675 -4.62718 C 0.97 -4.63 0.88 -4.62 0.78637 -4.62323 C 0.69 -4.62 0.6 -4.62 0.5018 -4.62078 C 0.41 -4.62 0.31 -4.62 0.21601 -4.61987 C 0.12 -4.62 0.03 -4.62 -0.07008 -4.62049 C -0.17 -4.62 -0.26 -4.62 -0.35554 -4.62265 C -0.49 -4.62 -0.63 -4.63 -0.75972 -4.62836 C -0.89 -4.63 -1.03 -4.63 -1.15811 -4.63714 C -1.22 -4.64 -1.29 -4.64 -1.35432 -4.64266 C -1.42 -4.64 -1.48 -4.65 -1.54809 -4.64893 C -1.61 -4.65 -1.68 -4.65 -1.73909 -4.65594 C -1.8 -4.66 -1.86 -4.66 -1.92698 -4.66368 C -2.03 -4.67 -2.12 -4.67 -2.21855 -4.67745 C -2.31 -4.68 -2.41 -4.69 -2.50006 -4.69299" />
    <path d="M 3.545 -4.93821 C 3.54 -4.93 3.53 -4.93 3.51516 -4.92427 C 3.5 -4.92 3.49 -4.92 3.48153 -4.9104 C 3.47 -4.91 3.46 -4.9 3.44416 -4.89663 C 3.43 -4.89 3.42 -4.89 3.40307 -4.88295 C 3.39 -4.88 3.37 -4.87 3.35832 -4.86938 C 3.34 -4.86 3.33 -4.86 3.30992 -4.85594 C 3.29 -4.85 3.28 -4.85 3.25794 -4.84264 C 3.24 -4.84 3.22 -4.83 3.20241 -4.82947 C 3.18 -4.83 3.16 -4.82 3.14337 -4.81647 C 3.12 -4.81 3.1 -4.81 3.08088 -4.80362 C 3.06 -4.8 3.04 -4.8 3.01498 -4.79096 C 2.99 -4.79 2.97 -4.78 2.94574 -4.77848 C 2.92 -4.77 2.9 -4.77 2.87319 -4.7662 C 2.85 -4.76 2.82 -4.76 2.7974 -4.75413 C 2.77 -4.75 2.75 -4.75 2.71843 -4.74228 C 2.69 -4.74 2.66 -4.73 2.63634 -4.73066 C 2.61 -4.73 2.58 -4.72 2.55224 -4.71941 C 2.52 -4.72 2.49 -4.71 2.46522 -4.7084 C 2.44 -4.7 2.41 -4.7 2.37535 -4.69765 C 2.34 -4.69 2.31 -4.69 2.28269 -4.68716 C 2.25 -4.68 2.22 -4.68 2.18731 -4.67694 C 2.16 -4.67 2.12 -4.67 2.0893 -4.66701 C 2.06 -4.66 2.02 -4.66 1.98873 -4.65736 C 1.95 -4.65 1.92 -4.65 1.88567 -4.64802" />
    <path d="M 3.66547 -5.05432 C 3.67 -5.05 3.66 -5.04 3.66377 -5.03978 C 3.66 -5.03 3.66 -5.03 3.65822 -5.02523 C 3.66 -5.02 3.65 -5.02 3.64883 -5.01067 C 3.65 -5.01 3.64 -5 3.63562 -4.99611 C 3.63 -4.99 3.62 -4.99 3.61861 -4.98158 C 3.61 -4.98 3.61 -4.97 3.59782 -4.96708 C 3.59 -4.96 3.58 -4.96 3.57328 -4.95262 C 3.56 -4.95 3.56 -4.94 3.545 -4.93821" />
    <path d="M 0.37971 -5.3504 C 0.43 -5.35 0.48 -5.35 0.53224 -5.34541 C 0.58 -5.34 0.63 -5.34 0.68339 -5.33993 C 0.73 -5.34 0.78 -5.34 0.833 -5.33396 C 0.88 -5.33 0.93 -5.33 0.98091 -5.32751 C 1.04 -5.32 1.1 -5.32 1.16428 -5.31874 C 1.22 -5.32 1.28 -5.31 1.34441 -5.30925 C 1.4 -5.31 1.46 -5.3 1.52098 -5.29906 C 1.58 -5.3 1.64 -5.29 1.69373 -5.28818 C 1.75 -5.28 1.81 -5.28 1.86236 -5.27663 C 1.92 -5.27 1.97 -5.27 2.02661 -5.26444 C 2.08 -5.26 2.13 -5.26 2.18621 -5.25163 C 2.24 -5.25 2.29 -5.24 2.3409 -5.23821 C 2.38 -5.23 2.41 -5.23 2.44674 -5.22842 C 2.48 -5.23 2.52 -5.22 2.54993 -5.21834 C 2.58 -5.21 2.62 -5.21 2.6504 -5.20799 C 2.68 -5.2 2.72 -5.2 2.74805 -5.19738 C 2.78 -5.19 2.81 -5.19 2.84281 -5.18651 C 2.87 -5.18 2.9 -5.18 2.9346 -5.1754 C 2.96 -5.17 2.99 -5.17 3.02334 -5.16405 C 3.05 -5.16 3.08 -5.16 3.10895 -5.15247 C 3.16 -5.14 3.22 -5.14 3.26814 -5.12902 C 3.32 -5.12 3.37 -5.11 3.41432 -5.1048 C 3.46 -5.1 3.51 -5.09 3.54694 -5.07987 C 3.57 -5.08 3.59 -5.07 3.608 -5.06717 C 3.63 -5.06 3.65 -5.06 3.66547 -5.05432" />
</svg>