<svg version="1.1" xmlns="http://www.w3.org/2000/svg" viewBox="-10.954960148410358 -10.824936525483674 21.90992029682071 31.474804679596573" fill="none" stroke="black" stroke-width="0.6%" vector-effect="non-scaling-stroke">
    <path d="M -9.95496 19.47324 L -9.95496 9.64831 L 0 9.82494 L 9.95496 -9.64831 L 0 -9.82494 L -9.95496 9.64831" />
    <path d="M 0 19.64987 L 0 9.82494" />
    <path d="M -9.95496 19.47324 L 0 19.64987 L 4.97748 9.91325 L 9.95496 0.17662 L 9.95496 -9.64831" />
    <path d="M -3.44053 -0.27791 C -3.41 -0.29 -3.38 -0.29 -3.34711 -0.30219 C -3.32 -0.31 -3.28 -0.32 -3.24944 -0.32596 C -3.22 -0.33 -3.18 -0.34 -3.14766 -0.34918 C -3.11 -0.36 -3.08 -0.36 -3.04189 -0.37183 C -3 -0.38 -2.95 -0.39 -2.9034 -0.39947 C -2.86 -0.41 -2.81 -0.42 -2.75906 -0.42614 C -2.71 -0.43 -2.66 -0.44 -2.60915 -0.45178 C -2.56 -0.46 -2.51 -0.47 -2.45391 -0.47636 C -2.4 -0.48 -2.35 -0.49 -2.29363 -0.49984 C -2.24 -0.51 -2.18 -0.51 -2.12858 -0.52217 C -2.07 -0.53 -2.02 -0.54 -1.95903 -0.54333 C -1.9 -0.55 -1.84 -0.56 -1.78525 -0.56328 C -1.74 -0.57 -1.7 -0.57 -1.66053 -0.57659 C -1.62 -0.58 -1.58 -0.59 -1.53396 -0.58927 C -1.49 -0.59 -1.45 -0.6 -1.40563 -0.60131 C -1.36 -0.61 -1.32 -0.61 -1.27567 -0.61271 C -1.23 -0.62 -1.19 -0.62 -1.14416 -0.62344 C -1.1 -0.63 -1.06 -0.63 -1.01122 -0.63352 C -0.97 -0.64 -0.92 -0.64 -0.87695 -0.64291 C -0.83 -0.65 -0.79 -0.65 -0.74147 -0.65163 C -0.7 -0.65 -0.65 -0.66 -0.60694 -0.65953 C -0.56 -0.66 -0.52 -0.66 -0.47145 -0.66676 C -0.43 -0.67 -0.38 -0.67 -0.3351 -0.6733 C -0.29 -0.68 -0.24 -0.68 -0.19801 -0.67915 C -0.15 -0.68 -0.11 -0.68 -0.06028 -0.6843 C -0.01 -0.69 0.03 -0.69 0.07796 -0.68874 C 0.12 -0.69 0.17 -0.69 0.21661 -0.69246 C 0.26 -0.69 0.31 -0.69 0.35553 -0.69547 L 0.47405 8.89763" />
    <path d="M -3.54726 -0.06294 C -3.55 -0.08 -3.55 -0.09 -3.54567 -0.10322 C -3.54 -0.12 -3.54 -0.13 -3.53436 -0.14732 C -3.53 -0.16 -3.52 -0.18 -3.51307 -0.19119 C -3.5 -0.21 -3.49 -0.22 -3.48178 -0.23476 C -3.47 -0.25 -3.46 -0.26 -3.44053 -0.27791 L -4.58737 9.45439" />
    <path d="M -2.4819 0.52372 C -2.51 0.52 -2.54 0.51 -2.56487 0.50302 C -2.59 0.5 -2.62 0.49 -2.64483 0.48187 C -2.67 0.47 -2.7 0.47 -2.72172 0.46029 C -2.75 0.45 -2.77 0.45 -2.79547 0.43829 C -2.82 0.43 -2.84 0.42 -2.86603 0.41589 C -2.89 0.41 -2.91 0.4 -2.93335 0.39312 C -2.96 0.39 -2.98 0.38 -2.99738 0.37 C -3.02 0.36 -3.04 0.35 -3.05808 0.34654 C -3.08 0.34 -3.1 0.33 -3.11608 0.32248 C -3.13 0.31 -3.15 0.31 -3.17057 0.29811 C -3.19 0.29 -3.21 0.28 -3.22153 0.27346 C -3.24 0.27 -3.25 0.26 -3.26889 0.24855 C -3.28 0.24 -3.3 0.23 -3.31265 0.22341 C -3.33 0.21 -3.34 0.21 -3.35275 0.19804 C -3.37 0.19 -3.38 0.18 -3.38916 0.17248 C -3.4 0.16 -3.41 0.16 -3.42187 0.14674 C -3.43 0.14 -3.44 0.13 -3.45084 0.12085 C -3.46 0.11 -3.47 0.1 -3.47605 0.09482 C -3.48 0.09 -3.49 0.08 -3.49748 0.06869 C -3.5 0.06 -3.51 0.05 -3.51511 0.04246 C -3.52 0.03 -3.52 0.02 -3.52891 0.01616 C -3.53 0.01 -3.54 0 -3.53888 -0.01019 C -3.54 -0.02 -3.54 -0.03 -3.545 -0.03656 C -3.55 -0.05 -3.55 -0.05 -3.54726 -0.06294" />
    <path d="M 1.90663 0.60158 C 1.82 0.61 1.73 0.61 1.63887 0.61749 C 1.55 0.62 1.46 0.63 1.36603 0.63067 C 1.27 0.63 1.18 0.64 1.08907 0.6411 C 1 0.64 0.9 0.65 0.80894 0.64874 C 0.71 0.65 0.62 0.65 0.52454 0.65362 C 0.43 0.65 0.33 0.66 0.23882 0.65565 C 0.14 0.66 0.05 0.66 -0.0473 0.65484 C -0.14 0.65 -0.24 0.65 -0.3329 0.6512 C -0.4 0.65 -0.47 0.65 -0.5357 0.64688 C -0.6 0.65 -0.67 0.64 -0.73743 0.64113 C -0.8 0.64 -0.87 0.64 -0.93777 0.63396 C -1 0.63 -1.07 0.63 -1.13639 0.62538 C -1.2 0.62 -1.27 0.62 -1.33294 0.6154 C -1.4 0.61 -1.46 0.61 -1.52711 0.60404 C -1.59 0.6 -1.66 0.6 -1.71856 0.59131 C -1.78 0.59 -1.84 0.58 -1.90695 0.57723 C -1.96 0.57 -2.01 0.57 -2.05433 0.56508 C -2.1 0.56 -2.15 0.56 -2.1994 0.55211 C -2.25 0.55 -2.29 0.54 -2.34198 0.53832 C -2.39 0.53 -2.44 0.53 -2.4819 0.52372" />
    <path d="M 3.54726 0.06294 C 3.54 0.07 3.53 0.08 3.51832 0.08876 C 3.51 0.1 3.5 0.11 3.48558 0.11444 C 3.47 0.12 3.46 0.13 3.4491 0.13997 C 3.44 0.15 3.42 0.16 3.40889 0.16531 C 3.39 0.17 3.38 0.18 3.36501 0.19045 C 3.35 0.2 3.33 0.21 3.31748 0.21536 C 3.3 0.22 3.28 0.23 3.26636 0.24003 C 3.25 0.25 3.23 0.26 3.21167 0.26444 C 3.19 0.27 3.17 0.28 3.15347 0.28856 C 3.13 0.3 3.11 0.3 3.09181 0.31239 C 3.07 0.32 3.05 0.33 3.02673 0.33588 C 3 0.34 2.98 0.35 2.95829 0.35904 C 2.93 0.37 2.91 0.37 2.88653 0.38183 C 2.86 0.39 2.84 0.4 2.81152 0.40425 C 2.79 0.41 2.76 0.42 2.73331 0.42626 C 2.71 0.43 2.68 0.44 2.65197 0.44785 C 2.62 0.45 2.6 0.46 2.5686 0.46876 C 2.54 0.48 2.51 0.48 2.48229 0.48921 C 2.45 0.5 2.42 0.5 2.39311 0.50921 C 2.36 0.52 2.33 0.52 2.30112 0.52872 C 2.27 0.54 2.24 0.54 2.20641 0.54773 C 2.17 0.55 2.14 0.56 2.10904 0.56622 C 2.08 0.57 2.04 0.58 2.00908 0.58418 C 1.98 0.59 1.94 0.6 1.90663 0.60158" />
    <path d="M 3.66026 -0.15192 C 3.66 -0.14 3.66 -0.13 3.6595 -0.12503 C 3.66 -0.12 3.66 -0.11 3.65489 -0.0981 C 3.65 -0.09 3.65 -0.08 3.64644 -0.07117 C 3.64 -0.06 3.64 -0.05 3.63416 -0.04424 C 3.63 -0.04 3.62 -0.03 3.61809 -0.01734 C 3.61 -0.01 3.61 0 3.59823 0.0095 C 3.59 0.02 3.58 0.03 3.57461 0.03627 C 3.57 0.05 3.56 0.05 3.54726 0.06294" />
    <path d="M 0.35553 -0.69547 C 0.41 -0.69 0.46 -0.69 0.50837 -0.68642 C 0.56 -0.68 0.61 -0.68 0.65988 -0.67646 C 0.71 -0.67 0.76 -0.67 0.80987 -0.66561 C 0.86 -0.66 0.91 -0.66 0.95819 -0.65387 C 1.02 -0.65 1.08 -0.64 1.14212 -0.63787 C 1.2 -0.63 1.26 -0.63 1.32285 -0.62054 C 1.38 -0.61 1.44 -0.61 1.50008 -0.6019 C 1.56 -0.6 1.62 -0.59 1.67353 -0.58199 C 1.73 -0.58 1.79 -0.57 1.8429 -0.56084 C 1.9 -0.55 1.95 -0.55 2.00793 -0.5385 C 2.06 -0.53 2.12 -0.52 2.16835 -0.515 C 2.22 -0.51 2.27 -0.5 2.3239 -0.49038 C 2.36 -0.48 2.4 -0.48 2.43036 -0.47239 C 2.47 -0.47 2.5 -0.46 2.5342 -0.45388 C 2.57 -0.45 2.6 -0.44 2.63533 -0.43487 C 2.67 -0.43 2.7 -0.42 2.73366 -0.41536 C 2.77 -0.41 2.8 -0.4 2.82912 -0.39538 C 2.86 -0.39 2.89 -0.38 2.92163 -0.37494 C 2.95 -0.37 2.98 -0.36 3.01109 -0.35405 C 3.04 -0.35 3.07 -0.34 3.09744 -0.33274 C 3.15 -0.32 3.21 -0.3 3.25814 -0.28957 C 3.31 -0.27 3.36 -0.26 3.40587 -0.24495 C 3.43 -0.24 3.45 -0.23 3.47471 -0.22214 C 3.5 -0.21 3.52 -0.21 3.54009 -0.19902 C 3.56 -0.19 3.58 -0.18 3.60197 -0.1756 C 3.62 -0.17 3.64 -0.16 3.66026 -0.15192" />
</svg>